<svg xmlns="http://www.w3.org/2000/svg" width="1024" height="1024" viewBox="0 0 1024 1024">
<g>
<path d="M 226.91 761.91 C225.74,763.49 223.47,765.76 221.86,766.94 L 218.94 769.11 L 216.22 763.30 L 213.50 757.50 L 213.20 663.50 C212.88,564.66 213.31,551.24 217.03,543.94 C219.72,538.68 220.71,538.36 224.17,541.64 C228.15,545.42 230.58,550.38 231.45,556.50 C232.90,566.70 240.31,596.68 244.16,607.90 C252.57,632.43 264.41,652.50 281.91,671.91 C302.32,694.54 328.42,712.18 356.17,722.10 C362.04,724.20 368.41,726.75 370.34,727.78 C370.88,728.08 371.32,728.33 371.79,728.54 C374.68,729.82 378.37,729.33 411.06,724.96 L 414.50 724.50 C458.79,718.58 462.99,717.87 481.00,713.34 C509.57,706.15 514.13,704.39 529.23,694.65 C537.74,689.15 549.00,677.16 549.00,673.58 C549.00,672.64 551.05,667.08 553.55,661.23 C561.03,643.71 562.40,637.08 562.41,618.50 C562.41,605.06 562.05,601.17 560.16,594.17 C552.03,563.99 536.56,542.49 506.80,520.00 C504.25,518.08 501.45,515.30 500.57,513.83 C499.70,512.36 494.37,508.24 488.74,504.68 C389.31,441.77 373.99,432.29 368.65,430.39 C362.17,428.08 288.93,380.76 274.60,369.62 C236.35,339.90 213.76,302.21 207.93,258.41 C206.09,244.55 207.26,206.95 209.93,194.71 C220.03,148.25 246.81,110.63 290.00,82.18 C324.91,59.19 347.70,51.95 401.00,46.92 C413.77,45.72 443.86,46.46 445.41,48.01 C445.96,48.56 448.32,49.00 450.66,49.00 C457.73,49.00 465.89,52.64 471.33,58.21 C473.99,60.94 475.90,63.43 475.58,63.75 C475.26,64.08 470.61,62.24 465.25,59.68 C453.43,54.03 448.37,53.00 432.44,53.00 C409.38,53.00 395.89,56.29 373.50,67.38 C351.50,78.27 333.97,90.90 319.22,106.48 C303.13,123.49 294.23,138.43 287.06,160.50 C278.80,185.91 278.88,207.72 287.30,229.00 C296.10,251.22 310.81,267.42 339.87,286.91 C363.40,302.69 375.06,310.00 376.70,310.00 C380.23,310.00 376.37,295.27 367.47,274.79 C363.95,266.70 360.38,257.41 359.54,254.14 C357.80,247.44 357.50,239.00 358.99,239.00 C359.54,239.00 361.35,241.42 363.02,244.38 C364.69,247.34 369.08,253.22 372.78,257.44 C383.81,270.06 388.81,277.16 391.12,283.50 C392.33,286.80 393.66,289.90 394.09,290.39 C395.17,291.61 402.79,279.48 404.24,274.25 C404.89,271.91 405.71,270.00 406.07,270.00 C406.43,270.00 407.01,272.44 407.36,275.42 C408.15,282.11 405.85,294.89 403.04,299.43 C400.52,303.51 391.95,311.61 388.50,313.18 C384.71,314.91 385.78,317.11 392.08,320.50 C395.14,322.15 400.31,325.85 403.57,328.71 C406.83,331.58 425.48,343.74 445.00,355.75 C495.66,386.89 497.40,387.92 502.25,389.37 C506.78,390.74 542.52,412.82 557.36,423.43 C610.76,461.61 637.99,503.04 646.13,558.50 C647.69,569.11 647.67,592.29 646.09,603.50 C644.33,616.03 639.23,636.62 636.55,642.00 C616.30,682.74 610.77,690.77 588.93,711.07 C582.80,716.76 577.41,722.42 576.95,723.64 C575.60,727.18 555.82,740.29 539.50,748.47 C522.40,757.03 500.96,764.59 498.11,763.06 C496.94,762.43 492.20,762.58 484.41,763.48 C460.82,766.22 443.06,767.00 427.98,765.96 C400.99,764.09 382.52,762.06 377.71,760.42 C375.08,759.52 371.94,759.04 370.75,759.36 C369.47,759.69 354.71,755.99 335.03,750.39 C271.37,732.29 261.33,730.03 253.68,732.09 C243.25,734.89 237.71,740.00 232.37,751.72 C230.53,755.74 228.08,760.33 226.91,761.91 ZM 217.97 760.66 L 220.03 765.32 L 222.56 762.95 C223.95,761.64 227.08,756.51 229.51,751.54 C235.05,740.24 238.80,735.67 245.35,732.22 C249.97,729.78 251.48,729.51 260.00,729.61 C270.91,729.74 279.08,731.70 334.12,747.41 C352.62,752.68 369.43,757.00 371.48,757.00 C373.53,757.00 377.75,757.65 380.86,758.44 C389.66,760.69 423.68,763.41 443.00,763.40 C452.77,763.40 468.13,762.60 477.78,761.59 C487.29,760.59 496.51,760.01 498.28,760.28 C508.72,761.88 559.90,737.33 571.45,725.18 C572.85,723.71 581.32,715.08 590.27,706.00 C608.73,687.28 614.33,679.67 624.89,659.00 C628.97,651.03 633.12,642.92 634.12,641.00 C635.12,639.08 637.06,633.22 638.44,628.00 C648.31,590.47 646.67,555.14 633.38,519.53 C621.09,486.62 600.38,459.66 568.40,434.97 C550.09,420.83 505.00,392.00 501.21,392.00 C500.05,392.00 492.22,387.80 483.80,382.66 C427.38,348.22 406.89,335.22 402.50,331.09 C399.75,328.49 394.64,324.85 391.14,322.99 C387.43,321.01 384.31,318.58 383.66,317.14 C382.65,314.93 382.88,314.43 386.02,312.09 C393.49,306.53 401.55,297.54 402.70,293.50 C405.61,283.21 405.23,279.95 401.80,285.77 C400.90,287.29 399.01,289.78 397.59,291.31 C394.13,295.04 391.78,293.71 389.56,286.78 C387.40,280.04 383.17,273.62 373.88,262.97 C369.81,258.30 365.42,252.99 364.13,251.18 C362.84,249.37 361.56,248.10 361.30,248.37 C360.36,249.31 364.14,260.20 370.97,276.26 C378.74,294.52 382.39,308.62 380.08,311.40 C377.33,314.72 376.58,314.34 347.15,294.84 C321.35,277.74 318.13,275.29 308.62,265.55 C294.11,250.70 285.67,236.32 280.86,218.30 C278.09,207.90 277.85,185.22 280.39,173.67 C284.37,155.60 292.96,135.93 303.16,121.56 C311.08,110.40 329.25,92.34 341.61,83.34 C366.27,65.38 399.73,51.12 417.50,51.00 C419.70,50.98 422.17,50.53 423.00,50.00 C425.47,48.40 395.03,48.73 390.38,50.35 C388.24,51.09 382.90,51.97 378.50,52.30 C368.24,53.07 348.83,57.17 337.82,60.89 C302.92,72.69 263.45,101.14 241.93,130.03 C228.89,147.53 219.60,166.80 214.60,186.70 C210.40,203.42 209.76,210.92 210.24,238.15 C210.66,262.58 210.79,263.93 213.78,275.27 C223.07,310.62 240.43,337.48 270.12,362.47 C284.54,374.61 359.74,423.96 369.95,427.98 C375.95,430.35 381.22,433.54 434.00,466.81 C499.47,508.08 500.32,508.65 502.50,512.05 C503.60,513.77 505.96,516.19 507.75,517.43 C518.08,524.59 532.72,538.29 539.37,547.00 C551.39,562.76 556.38,572.29 561.60,589.54 C563.94,597.26 564.38,600.74 564.76,614.70 C565.30,634.41 563.92,642.58 557.35,658.50 C554.85,664.55 552.47,671.13 552.06,673.13 C550.78,679.33 540.85,690.24 530.25,697.11 C525.15,700.41 518.18,704.43 514.74,706.03 C506.21,710.02 468.74,719.48 451.56,721.97 C427.91,725.41 394.39,729.91 383.07,731.17 C372.73,732.32 372.20,732.28 368.84,730.21 C366.92,729.03 360.66,726.43 354.93,724.43 C327.44,714.89 300.75,696.80 279.76,673.50 C253.74,644.63 240.91,616.78 230.95,567.60 C229.27,559.30 227.67,551.71 227.38,550.74 C226.75,548.62 222.14,543.00 221.03,543.00 C220.59,543.00 219.39,544.69 218.36,546.75 C216.59,550.32 216.49,555.34 216.20,653.25 C215.91,755.19 215.92,756.03 217.97,760.66 ZM 607.77 720.98 C598.27,722.06 588.70,723.18 586.50,723.47 C584.30,723.76 581.83,723.57 581.02,723.04 C579.81,722.27 580.38,721.39 584.02,718.40 C591.50,712.24 608.18,694.88 613.67,687.55 C619.39,679.92 627.67,665.73 630.01,659.58 C631.50,655.66 635.21,652.17 646.61,643.98 C652.39,639.82 667.23,622.36 672.39,613.66 C674.38,610.28 678.01,602.79 680.45,597.01 C690.59,572.94 693.55,555.15 693.41,519.00 C693.33,497.70 693.08,494.33 690.70,483.00 C687.25,466.49 683.96,456.69 677.95,445.00 C663.86,417.57 640.81,398.29 610.50,388.59 C586.18,380.81 568.72,378.78 529.50,379.20 L 500.50 379.50 L 500.18 382.81 C499.99,384.84 499.38,386.00 498.62,385.81 C496.55,385.29 407.00,329.89 407.00,329.12 C407.00,328.73 447.61,328.49 497.25,328.59 C594.65,328.78 597.65,328.91 635.00,334.60 C668.71,339.74 681.59,343.29 707.05,354.49 C729.97,364.57 743.56,372.81 759.50,386.30 C768.61,394.02 782.39,409.37 788.60,418.71 C801.80,438.60 812.68,467.71 816.18,492.50 C817.84,504.22 817.79,537.98 816.10,549.50 C809.90,591.84 796.19,622.32 770.51,650.79 C763.51,658.55 743.36,675.12 734.87,680.08 C726.49,684.99 706.14,695.17 695.00,700.04 C675.93,708.37 637.59,717.58 607.77,720.98 ZM 587.00 720.19 C587.00,720.66 588.01,720.82 589.25,720.55 C590.49,720.28 598.46,719.34 606.96,718.46 C650.60,713.94 690.92,701.44 727.30,681.16 C768.89,657.97 799.88,616.21 809.86,569.88 C815.14,545.34 816.62,513.90 813.48,492.74 C805.33,437.76 775.86,394.57 728.00,367.47 C714.24,359.68 687.03,348.53 670.50,343.92 C652.45,338.89 611.68,333.31 583.50,332.03 C560.06,330.96 414.47,331.10 416.32,332.20 C416.97,332.58 435.27,343.86 457.00,357.27 L 496.50 381.65 L 498.24 378.83 L 499.97 376.00 L 528.74 376.01 C567.57,376.02 581.75,377.67 607.96,385.18 C629.17,391.26 647.20,402.06 661.77,417.39 C681.91,438.60 692.93,466.39 696.10,503.96 C697.87,525.04 695.50,557.62 690.93,575.00 C687.93,586.39 680.59,604.55 675.27,613.78 C668.59,625.36 654.32,641.98 646.16,647.69 C636.11,654.72 634.14,656.86 630.49,664.74 C623.25,680.39 608.36,700.14 594.30,712.78 C590.28,716.39 587.00,719.72 587.00,720.19 ZM 589.04 931.97 L 588.50 977.50 L 438.94 977.78 C356.69,977.93 289.07,977.74 288.69,977.36 C288.31,976.98 288.00,966.40 288.00,953.85 L 288.00 931.04 L 290.25 930.55 C291.49,930.28 309.03,928.27 329.23,926.08 C349.44,923.88 366.82,921.63 367.86,921.07 C369.68,920.10 369.78,917.34 370.49,851.78 C370.90,814.23 371.29,778.63 371.36,772.67 L 371.50 761.84 L 374.00 762.28 C375.38,762.51 380.10,763.43 384.50,764.32 C394.37,766.31 428.69,769.00 444.16,769.00 C461.14,769.00 488.22,766.29 496.41,763.78 C496.94,763.62 497.47,779.19 497.68,801.00 C498.32,866.79 499.90,919.33 501.27,920.69 C502.04,921.45 517.79,923.45 543.50,926.03 C566.05,928.30 585.52,930.57 586.77,931.07 ZM 417.50 975.02 C487.35,975.30 553.95,975.52 565.50,975.52 L 586.50 975.50 L 586.77 954.73 C586.98,938.64 586.75,933.85 585.77,933.49 C585.07,933.23 565.68,931.05 542.67,928.65 C509.02,925.13 500.51,923.94 499.17,922.60 C497.72,921.15 497.40,916.90 496.71,890.22 C496.28,873.32 495.83,839.18 495.71,814.33 C495.60,789.49 495.18,768.85 494.79,768.46 C494.40,768.07 487.20,768.48 478.79,769.36 C451.33,772.25 441.49,772.36 413.50,770.09 C399.20,768.93 384.62,767.30 381.11,766.47 C377.59,765.64 374.50,765.16 374.25,765.42 C373.99,765.67 373.58,800.00 373.34,841.69 C373.09,883.39 372.67,918.53 372.42,919.78 C372.14,921.13 370.64,922.64 368.72,923.49 C366.35,924.55 296.74,933.04 290.73,933.00 C290.31,933.00 290.08,942.34 290.23,953.75 L 290.50 974.50 ZM 409.50 722.51 C389.06,725.50 378.58,726.60 374.36,726.20 C371.76,725.94 371.12,725.37 370.61,722.82 C370.28,721.13 370.00,655.46 370.00,576.88 C370.00,459.89 370.24,434.00 371.31,434.00 C372.03,434.00 400.71,451.69 435.06,473.31 L 497.50 512.62 L 497.76 591.97 C497.94,648.56 498.33,671.70 499.13,672.65 C499.93,673.62 503.41,674.04 511.37,674.14 C517.49,674.21 527.85,674.55 534.39,674.89 L 546.28 675.50 L 541.09 681.71 C536.32,687.41 527.27,694.33 519.28,698.39 C504.85,705.71 467.18,715.24 440.00,718.43 C432.58,719.31 418.85,721.14 409.50,722.51 ZM 373.67 723.33 C374.84,724.51 379.59,724.07 404.30,720.53 C417.61,718.61 432.77,716.57 438.00,715.97 C452.66,714.31 469.21,711.23 483.58,707.49 C510.68,700.45 525.76,693.42 536.00,683.06 L 541.50 677.50 L 520.40 677.00 C504.58,676.63 498.89,676.16 497.65,675.13 C496.14,673.87 496.00,666.93 496.00,594.35 L 496.00 514.94 L 485.75 508.40 C480.11,504.80 464.70,495.08 451.50,486.80 C438.30,478.51 415.47,464.15 400.77,454.87 C386.07,445.59 373.81,438.00 373.52,438.00 C372.75,438.00 372.89,722.56 373.67,723.33 ZM 513.00 164.26 C511.08,167.96 509.19,170.99 508.81,170.99 C507.75,171.00 509.06,164.20 511.57,156.67 C514.68,147.37 519.46,139.74 525.83,133.89 C529.86,130.20 530.78,128.85 529.62,128.41 C527.55,127.61 519.01,131.66 510.74,137.35 C507.02,139.91 503.75,142.00 503.47,142.00 C502.69,142.00 507.83,132.23 508.98,131.51 C510.22,130.74 510.34,127.00 509.13,127.00 C508.65,127.00 505.42,129.53 501.95,132.62 C495.79,138.12 495.55,138.23 490.91,137.68 C486.18,137.12 477.09,133.17 473.75,130.23 C471.14,127.93 471.48,120.95 474.50,115.00 C475.88,112.29 477.00,109.83 477.00,109.53 C477.00,108.02 473.50,109.40 469.38,112.54 C464.34,116.38 463.16,116.47 465.06,112.84 C470.45,102.57 485.68,90.70 499.49,86.01 C505.41,84.00 506.35,81.80 502.05,80.02 C496.82,77.85 498.65,77.00 508.54,77.00 C519.06,77.00 530.08,78.94 539.41,82.42 C544.63,84.38 545.57,85.11 546.01,87.60 C546.49,90.35 546.86,90.54 553.01,91.28 C572.37,93.62 585.22,96.53 585.08,98.54 C585.05,99.07 580.66,99.72 575.34,100.00 C569.16,100.32 565.52,100.93 565.27,101.69 C564.79,103.12 571.01,104.99 576.31,104.99 C579.49,105.00 580.98,105.81 585.31,109.87 C588.16,112.55 591.96,115.48 593.74,116.39 C599.35,119.25 599.16,125.88 593.34,129.70 C591.08,131.18 588.47,131.50 578.55,131.50 C571.92,131.50 564.59,131.10 562.25,130.62 C558.31,129.81 558.00,129.90 558.00,131.87 C558.00,133.04 557.36,134.00 556.59,134.00 C554.57,134.00 550.29,128.58 549.51,125.02 C548.01,118.23 543.62,123.62 543.83,132.00 L 543.94 136.50 L 536.73 140.50 C527.42,145.67 517.52,155.58 513.00,164.26 ZM 345.48 234.62 C345.88,240.47 345.81,245.00 345.31,245.00 C343.80,245.00 339.19,231.74 337.05,221.24 C335.42,213.26 335.00,207.39 335.00,192.84 C335.00,169.05 336.83,158.53 343.26,145.23 C348.56,134.28 344.92,135.46 330.74,149.28 C324.98,154.90 319.10,161.06 317.68,162.97 C316.27,164.88 314.83,166.16 314.49,165.82 C313.57,164.91 318.75,150.32 322.23,144.00 C323.90,140.98 327.05,136.25 329.24,133.50 L 333.21 128.50 L 329.81 128.20 C327.74,128.02 324.29,128.88 321.00,130.41 C318.02,131.79 315.38,132.71 315.12,132.45 C314.24,131.57 320.72,124.46 328.02,118.32 C346.82,102.48 379.62,87.42 399.77,85.36 C405.91,84.74 406.38,84.82 405.15,86.31 C404.41,87.20 400.89,89.57 397.32,91.56 C389.49,95.94 378.32,106.26 372.53,114.47 C366.96,122.39 360.74,133.71 361.20,135.10 C361.40,135.70 364.89,133.68 368.96,130.60 C375.38,125.73 382.58,122.25 383.76,123.43 C383.97,123.64 381.39,126.84 378.03,130.55 C366.17,143.63 356.06,164.53 351.19,186.00 C346.48,206.76 344.65,222.35 345.48,234.62 ZM 517.00 151.05 C517.00,151.65 519.59,149.90 522.75,147.16 C525.91,144.43 531.31,140.55 534.75,138.55 C540.76,135.04 541.00,134.75 541.00,130.92 C541.00,126.11 543.31,120.20 545.52,119.35 C548.01,118.40 552.00,120.67 552.00,123.04 C552.00,124.19 552.48,126.03 553.07,127.13 C553.95,128.77 554.41,128.90 555.63,127.89 C556.79,126.93 558.50,126.91 563.31,127.78 C579.46,130.72 589.90,129.94 593.71,125.53 C596.46,122.36 595.80,120.46 591.13,118.04 C589.13,117.01 585.74,114.36 583.60,112.14 C580.23,108.65 578.94,108.02 574.10,107.48 C566.80,106.67 563.21,105.24 562.45,102.84 C561.65,100.33 563.63,98.00 566.56,98.00 C567.84,98.00 569.16,97.55 569.50,97.00 C569.84,96.45 569.98,95.99 569.81,95.98 C561.92,95.45 545.52,92.85 544.46,91.96 C543.66,91.30 543.00,89.89 543.00,88.83 C543.00,87.53 541.61,86.27 538.75,84.97 C533.08,82.40 530.00,82.41 530.00,85.00 C530.00,86.10 530.65,87.00 531.44,87.00 C532.24,87.00 534.77,89.00 537.06,91.45 C540.27,94.88 542.05,95.96 544.86,96.20 C547.79,96.44 548.56,96.95 548.83,98.81 C549.28,102.02 547.63,103.63 541.91,105.53 C539.20,106.43 534.66,108.77 531.82,110.72 C527.86,113.44 526.28,114.03 525.08,113.25 C524.21,112.68 523.55,111.55 523.62,110.72 C523.71,109.66 522.32,109.04 518.83,108.57 C514.84,108.04 513.75,107.46 512.98,105.46 C512.22,103.44 511.37,103.00 508.25,103.00 C503.49,103.00 500.00,100.65 500.00,97.45 C500.00,95.43 501.08,94.53 506.38,92.13 C512.12,89.52 512.72,88.98 512.29,86.73 C512.03,85.35 512.32,83.27 512.94,82.11 C513.99,80.15 513.82,80.00 510.57,80.00 C507.83,80.00 507.19,80.33 507.65,81.54 C508.47,83.67 505.46,86.70 501.13,88.10 C494.67,90.19 486.52,94.73 480.69,99.47 C477.56,102.02 475.00,104.48 475.00,104.94 C475.00,105.39 475.90,106.00 477.00,106.29 C479.74,107.01 479.58,110.56 476.51,117.15 C475.14,120.09 474.02,123.49 474.01,124.70 C474.00,127.21 478.40,130.79 484.50,133.25 C492.72,136.55 493.37,136.45 499.69,130.89 C509.19,122.52 512.40,122.12 512.40,129.28 L 512.40 132.57 L 519.95 128.76 C528.48,124.45 532.31,124.19 532.84,127.88 C533.09,129.66 531.79,131.69 527.70,135.88 C522.29,141.43 517.00,148.93 517.00,151.05 ZM 340.61 226.25 C341.63,229.66 343.00,227.94 343.01,223.25 C343.02,215.39 345.82,196.63 348.92,183.67 C352.76,167.60 360.57,149.71 369.39,136.75 C370.79,134.69 371.72,133.00 371.45,133.00 C371.18,133.00 369.18,134.18 367.01,135.62 C362.45,138.63 358.00,138.33 358.00,135.01 C358.00,132.81 366.43,118.08 372.04,110.50 C376.46,104.52 384.89,96.42 390.75,92.55 C393.09,91.00 395.00,89.53 395.00,89.29 C395.00,88.62 389.35,89.87 382.00,92.15 C366.43,96.98 344.74,108.34 332.48,118.08 C328.37,121.35 325.00,124.36 325.00,124.76 C325.00,125.17 327.19,125.35 329.86,125.16 C336.36,124.71 337.27,126.80 333.03,132.44 C328.89,137.96 322.35,148.97 321.49,151.88 C320.98,153.61 323.58,151.75 330.96,145.13 C341.40,135.77 344.90,133.84 347.51,136.01 C349.59,137.73 349.46,138.36 345.38,146.91 C339.91,158.36 337.02,173.92 337.01,192.00 C337.01,204.52 338.57,219.40 340.61,226.25 ZM 375.42 200.25 C374.44,203.41 373.27,206.00 372.82,206.00 C370.44,206.00 374.16,179.87 378.45,166.44 C379.85,162.07 382.75,155.33 384.91,151.46 C389.09,143.97 401.25,130.00 403.59,130.00 C403.73,130.00 403.86,130.00 403.98,129.99 C404.32,129.98 404.57,129.97 404.70,130.09 C405.06,130.41 404.56,131.70 402.70,136.49 C402.46,137.11 402.20,137.79 401.92,138.52 C398.57,147.17 394.91,162.61 395.71,164.70 C396.52,166.81 397.72,165.35 402.16,156.81 C407.87,145.84 420.40,132.62 429.74,127.71 C436.19,124.32 445.57,121.24 446.53,122.19 C446.77,122.44 444.42,126.66 441.30,131.57 C438.17,136.48 433.42,144.32 430.73,149.00 L 425.85 157.50 L 426.39 152.17 C426.68,149.24 428.07,144.35 429.46,141.30 C429.57,141.07 429.67,140.85 429.77,140.63 C431.53,136.80 432.09,135.57 431.73,135.18 C431.56,135.00 431.19,135.00 430.64,135.00 C430.58,135.00 430.51,135.00 430.44,135.00 C428.21,135.00 418.50,144.45 413.50,151.50 C406.06,161.98 399.28,177.13 394.42,194.18 C392.95,199.31 391.52,203.90 391.24,204.38 C389.90,206.66 388.84,200.76 388.29,187.99 C387.96,180.30 387.42,174.01 387.10,174.02 C384.81,174.07 380.64,183.45 375.42,200.25 ZM 507.80 252.58 C505.28,253.90 502.00,254.49 502.00,253.61 C502.00,253.40 502.62,251.76 503.38,249.96 C504.29,247.79 504.48,245.64 503.95,243.59 C503.51,241.89 502.39,237.01 501.47,232.75 C499.67,224.42 497.67,222.62 496.26,228.06 C495.23,232.03 493.86,232.17 492.02,228.47 C490.12,224.67 489.86,197.59 491.68,194.50 C492.15,193.72 492.41,193.15 492.68,193.14 C493.14,193.14 493.61,194.73 495.06,199.58 C495.22,200.13 495.40,200.71 495.58,201.34 C497.81,208.79 503.78,218.69 508.00,221.94 L 511.27 224.47 L 510.84 220.73 C510.60,218.68 510.57,217.00 510.79,217.00 C511.00,217.00 513.72,219.00 516.83,221.45 C522.00,225.50 525.01,227.09 537.71,232.48 C542.80,234.64 542.57,235.41 534.43,243.35 C529.13,248.53 521.64,252.97 520.36,251.70 C520.03,251.36 520.53,249.15 521.48,246.79 C522.44,244.43 523.44,241.94 523.72,241.25 C524.91,238.26 521.00,240.44 515.97,245.58 C512.96,248.64 509.28,251.79 507.80,252.58 ZM 423.09 306.94 C417.74,310.37 410.00,313.36 410.00,311.99 C410.00,311.48 412.39,309.26 415.32,307.05 C424.27,300.29 430.59,291.25 434.50,279.59 C435.88,275.50 437.00,271.41 437.00,270.50 C437.00,267.80 434.45,269.21 430.86,273.91 C427.26,278.63 422.39,282.72 421.47,281.80 C421.16,281.50 422.44,277.48 424.31,272.87 C426.18,268.27 429.81,259.05 432.37,252.39 C436.73,241.09 437.48,239.86 443.44,234.14 C447.25,230.47 450.70,228.00 452.00,228.00 C453.19,228.00 454.01,228.34 453.83,228.75 C453.64,229.16 452.20,231.96 450.62,234.96 C448.12,239.71 447.58,242.35 446.39,255.46 C444.66,274.53 443.44,281.20 440.48,287.75 C437.71,293.88 429.75,302.67 423.09,306.94 ZM 466.81 202.64 C461.72,207.43 453.00,212.93 453.00,211.34 C453.00,210.95 455.41,206.33 458.35,201.06 C474.74,171.79 475.14,171.00 473.43,171.00 C472.23,171.00 468.32,173.46 464.25,176.78 C459.53,180.62 458.98,180.19 462.10,175.07 C467.60,166.05 479.89,157.26 489.40,155.55 L 493.29 154.85 L 492.62 161.41 C491.78,169.58 491.25,171.00 489.00,171.00 C487.61,171.00 486.87,172.54 485.64,178.00 C484.77,181.86 483.28,187.59 482.33,190.75 C480.75,196.04 480.57,196.26 480.06,193.58 C479.24,189.32 477.43,189.36 474.69,193.68 C473.35,195.78 469.81,199.81 466.81,202.64 ZM 507.00 247.56 C507.00,249.91 507.12,249.96 509.25,248.57 C510.49,247.76 513.21,245.05 515.30,242.55 C518.44,238.79 519.69,238.00 522.49,238.00 C526.85,238.00 527.42,239.06 525.52,243.61 C524.67,245.64 524.13,247.47 524.33,247.66 C524.99,248.32 533.82,241.06 535.89,238.16 L 537.93 235.29 L 531.06 232.59 C527.28,231.11 522.10,228.52 519.55,226.83 C515.16,223.92 514.83,223.85 513.04,225.46 C511.60,226.77 510.71,226.92 509.20,226.11 C505.49,224.12 498.19,214.99 495.91,209.50 C494.66,206.47 493.20,204.00 492.67,204.00 C491.64,204.00 492.35,219.16 493.52,222.19 C494.03,223.52 494.69,223.69 496.58,222.97 C499.69,221.79 501.89,222.68 502.51,225.36 C506.23,241.63 507.00,245.45 507.00,247.56 ZM 398.07 73.37 C397.00,73.54 396.04,73.69 395.16,73.83 C388.73,74.84 387.18,75.08 386.99,74.68 C386.93,74.55 387.01,74.36 387.11,74.11 C387.15,74.00 387.20,73.88 387.24,73.75 C387.86,71.88 407.94,66.14 417.84,65.01 C422.60,64.46 430.89,64.01 436.25,64.01 C445.33,64.00 446.00,63.86 446.00,62.00 C446.00,60.90 446.58,60.00 447.28,60.00 C449.13,60.00 461.59,66.22 468.00,70.34 C472.60,73.30 473.19,73.99 471.62,74.59 C470.58,74.99 464.34,74.52 457.75,73.55 C441.86,71.20 412.48,71.11 398.07,73.37 ZM 428.10 197.75 C426.38,201.19 424.69,204.00 424.36,204.00 C423.72,204.00 424.25,199.35 425.89,190.45 C427.03,184.26 432.91,168.82 437.20,160.78 C440.62,154.37 452.32,141.05 453.52,142.21 C453.92,142.60 451.72,147.00 448.62,151.99 C442.43,161.95 442.65,163.74 449.65,160.19 C451.77,159.12 455.08,157.90 457.00,157.49 C460.35,156.77 460.11,157.12 451.44,165.62 C442.31,174.57 433.88,186.17 428.10,197.75 ZM 526.18 108.35 C526.00,109.81 526.07,111.00 526.33,111.00 C526.59,111.00 529.08,109.46 531.87,107.59 C534.66,105.71 538.64,103.63 540.72,102.96 C547.70,100.71 548.74,98.00 542.62,98.00 C540.02,98.00 538.54,97.09 535.32,93.50 C531.46,89.20 531.03,89.00 525.89,89.05 C522.00,89.08 518.04,90.13 511.66,92.82 C506.79,94.87 502.79,96.99 502.77,97.53 C502.70,99.11 507.22,100.97 511.18,100.99 C514.23,101.00 514.92,101.39 515.18,103.25 C515.47,105.26 516.09,105.51 521.00,105.60 C526.34,105.69 526.49,105.77 526.18,108.35 ZM 396.52 257.25 C396.96,262.14 396.84,265.00 396.22,265.00 C394.42,265.00 387.04,252.48 384.58,245.24 C381.89,237.33 380.25,227.00 381.69,227.00 C382.19,227.00 383.59,229.02 384.79,231.50 C385.99,233.98 387.55,236.00 388.25,236.00 C388.96,236.00 390.36,233.64 391.37,230.75 C395.59,218.66 405.14,200.81 406.60,202.27 C406.82,202.49 404.98,208.81 402.51,216.32 C397.38,231.91 395.45,245.10 396.52,257.25 ZM 444.99 101.61 C447.19,104.51 448.60,107.13 448.14,107.42 C446.93,108.16 439.53,101.59 437.03,97.55 C434.64,93.67 432.55,83.05 433.92,81.68 C434.44,81.16 438.71,81.71 444.16,82.99 C449.29,84.19 457.77,85.43 463.00,85.72 C475.54,86.43 476.03,86.76 471.60,91.46 C468.83,94.40 467.53,95.10 465.77,94.62 C464.52,94.28 461.02,93.71 458.00,93.36 L 452.50 92.70 L 454.38 94.83 C455.42,95.99 457.11,97.22 458.15,97.55 C459.18,97.88 459.79,98.52 459.51,98.99 C458.88,100.00 453.67,98.66 447.76,95.98 C439.74,92.34 439.05,93.74 444.99,101.61 ZM 390.81 186.05 C390.37,195.21 391.23,197.92 392.47,191.30 C392.85,189.27 395.09,182.74 397.45,176.80 C401.48,166.64 401.89,164.51 399.32,167.08 C398.72,167.68 397.17,168.02 395.87,167.83 C394.15,167.59 393.41,166.76 393.19,164.84 C392.83,161.73 395.25,149.38 397.41,143.24 C398.24,140.91 398.49,139.00 397.98,139.00 C396.39,139.00 388.99,149.08 385.53,155.95 C381.72,163.52 378.55,173.34 377.60,180.50 L 376.94 185.50 L 380.22 179.00 C383.13,173.23 383.86,172.46 386.72,172.19 C390.82,171.79 391.40,173.76 390.81,186.05 ZM 546.56 220.75 C543.39,224.51 541.55,224.68 534.36,221.92 C527.21,219.17 520.72,213.13 517.06,205.81 C514.27,200.22 513.18,196.00 514.53,196.00 C514.83,196.00 517.75,198.87 521.03,202.38 C527.37,209.15 535.40,213.62 539.42,212.61 C540.63,212.31 543.61,210.70 546.05,209.05 C551.48,205.37 552.00,205.33 552.00,208.53 C552.00,212.01 549.84,216.87 546.56,220.75 ZM 460.00 204.65 C460.00,206.33 468.81,197.77 471.66,193.31 C474.28,189.22 475.64,188.00 477.56,188.00 C480.46,188.00 481.28,186.32 483.28,176.28 C484.31,171.11 485.14,169.27 486.75,168.54 C490.40,166.89 491.42,159.00 487.99,159.00 C485.40,159.00 478.31,162.41 474.62,165.43 C471.89,167.66 471.84,167.82 473.78,168.43 C474.90,168.79 476.09,169.80 476.44,170.69 C477.12,172.46 476.53,173.73 466.70,191.81 C463.01,198.58 460.00,204.36 460.00,204.65 ZM 428.04 299.59 C428.12,301.25 435.15,292.58 437.57,287.82 C440.88,281.34 441.94,275.95 443.50,257.49 C444.25,248.69 445.33,240.25 445.91,238.74 C448.88,230.93 439.98,240.59 436.48,248.98 C429.92,264.72 425.80,279.09 430.39,270.21 C431.23,268.58 432.62,266.98 433.47,266.65 C435.86,265.73 440.00,267.72 440.00,269.79 C440.00,273.22 434.05,289.25 431.02,293.97 C429.36,296.56 428.02,299.09 428.04,299.59 ZM 532.50 194.75 C531.59,198.74 530.51,202.00 530.11,202.00 C528.86,202.00 524.32,196.67 522.44,193.00 C519.97,188.18 519.92,177.01 522.33,170.75 C525.44,162.69 527.71,164.70 528.24,176.00 C528.55,182.58 530.00,183.08 531.84,177.25 C535.44,165.89 535.96,179.68 532.50,194.75 ZM 581.19 157.42 C576.99,163.54 576.00,163.19 576.00,155.58 C576.00,145.34 572.45,143.33 559.00,145.97 C552.68,147.21 551.61,145.52 557.20,143.13 C563.92,140.25 589.00,135.78 589.00,137.46 C589.00,139.85 583.37,154.24 581.19,157.42 ZM 464.42 279.69 C463.89,283.20 462.75,285.41 459.88,288.44 C455.59,292.99 455.34,292.66 457.61,285.50 C458.68,282.13 459.17,277.07 459.10,270.00 C458.94,251.80 461.24,248.56 463.05,264.46 C463.60,269.31 464.29,273.67 464.59,274.14 C464.88,274.62 464.81,277.12 464.42,279.69 ZM 481.50 252.00 C481.50,258.64 481.03,264.29 480.39,265.38 C478.99,267.75 478.45,266.85 477.15,260.00 C476.58,256.98 475.20,251.88 474.09,248.68 L 472.06 242.85 L 478.22 244.21 L 477.51 239.10 C476.71,233.23 478.04,232.29 480.13,237.25 C481.02,239.37 481.50,244.50 481.50,252.00 ZM 446.05 92.33 C450.50,94.27 451.00,94.29 451.00,92.57 C451.00,90.26 454.82,89.69 461.19,91.04 C466.30,92.12 467.34,92.09 468.63,90.79 C469.98,89.45 469.28,89.21 462.32,88.59 C458.02,88.20 450.48,87.02 445.58,85.95 C440.67,84.89 436.45,84.21 436.21,84.46 C435.96,84.71 436.06,86.49 436.42,88.42 C437.02,91.62 437.33,91.88 439.84,91.38 C441.36,91.08 444.15,91.51 446.05,92.33 ZM 511.44 62.90 C512.71,64.95 508.56,63.94 503.50,60.96 C497.61,57.49 496.00,57.29 496.00,60.00 C496.00,62.94 494.92,62.53 487.88,56.92 C480.57,51.09 479.85,50.00 483.31,50.00 C489.96,50.00 508.81,58.64 511.44,62.90 ZM 451.50 70.26 C465.18,72.10 465.70,71.63 455.78,66.46 C450.34,63.62 448.44,63.40 447.64,65.50 C447.16,66.73 444.60,67.00 433.17,67.00 C419.19,67.00 410.00,67.75 410.00,68.89 C410.00,69.22 417.09,69.37 425.75,69.21 C435.03,69.04 445.61,69.47 451.50,70.26 ZM 430.00 186.16 C430.00,187.74 430.72,187.00 434.28,181.75 C436.25,178.86 439.95,173.91 442.51,170.75 C446.39,165.96 446.84,165.00 445.20,165.00 C444.13,165.00 442.68,164.32 442.00,163.50 C441.32,162.68 440.42,162.00 440.01,162.00 C438.74,162.00 430.00,183.08 430.00,186.16 ZM 534.36 219.08 C536.64,220.11 539.43,220.97 540.58,220.98 C542.75,221.00 545.94,218.07 547.91,214.25 C549.31,211.54 547.89,211.27 544.00,213.50 C540.05,215.76 534.82,215.27 528.43,212.05 C525.21,210.42 522.43,209.23 522.26,209.41 C521.53,210.14 530.56,217.35 534.36,219.08 ZM 389.59 250.75 C391.00,253.64 392.56,256.00 393.07,256.00 C393.58,256.00 394.01,251.84 394.01,246.75 C394.02,241.66 394.30,236.49 394.63,235.25 C395.53,231.91 393.62,232.52 392.31,236.00 C391.43,238.32 390.56,239.00 388.46,239.00 C385.94,239.00 385.79,239.22 386.39,242.25 C386.74,244.04 388.18,247.86 389.59,250.75 ZM 578.55 151.30 C579.17,154.70 579.37,154.91 580.50,153.30 C582.17,150.89 585.56,141.23 584.94,140.61 C584.11,139.78 569.00,141.23 569.00,142.14 C569.00,142.61 570.34,143.00 571.98,143.00 C575.45,143.00 577.50,145.59 578.55,151.30 ZM 527.18 195.72 C528.79,197.66 529.71,196.27 530.79,190.25 C531.59,185.79 531.50,185.00 530.19,185.00 C527.64,185.00 525.00,181.87 525.00,178.85 C525.00,177.28 524.55,176.00 524.00,176.00 C523.45,176.00 523.00,178.49 523.00,181.53 C523.00,186.83 524.76,192.80 527.18,195.72 ZM 515.00 85.11 C515.00,86.68 515.65,86.83 520.25,86.32 C526.80,85.58 528.95,84.17 526.40,82.30 C522.90,79.74 515.00,81.69 515.00,85.11 ZM 434.00 134.61 C434.00,135.37 434.34,136.00 434.76,136.00 C435.74,136.00 441.24,126.91 440.62,126.29 C439.89,125.55 428.00,131.16 428.00,132.24 C428.00,132.78 428.67,132.95 429.50,132.64 C431.56,131.85 434.00,132.92 434.00,134.61 ZM 477.56 250.38 C477.92,251.82 478.62,253.00 479.11,253.00 C480.37,253.00 480.22,248.25 478.93,247.46 C477.31,246.46 476.83,247.48 477.56,250.38 Z" fill="rgb(204,164,44)"/>
<path d="M 390.81 186.05 C390.88,184.52 390.94,183.16 390.97,181.94 C390.98,182.39 390.98,182.85 390.98,183.31 C390.99,188.92 391.36,191.89 392.00,191.50 C392.20,191.37 392.39,191.17 392.55,190.92 C392.52,191.06 392.49,191.19 392.47,191.30 C391.23,197.92 390.37,195.21 390.81,186.05 ZM 575.93 144.71 C574.89,143.55 573.58,143.00 571.98,143.00 C570.34,143.00 569.00,142.61 569.00,142.14 C569.00,141.57 575.11,140.77 579.78,140.48 C575.81,140.80 571.00,141.57 571.00,142.14 C571.00,142.62 571.89,143.00 572.98,143.00 C574.03,143.00 575.04,143.61 575.93,144.71 ZM 393.05 189.11 C393.37,187.61 395.19,182.50 397.37,177.01 C395.61,181.45 393.93,186.19 393.05,189.11 ZM 390.36 173.90 C390.10,173.23 389.74,172.79 389.28,172.52 C389.66,172.69 389.96,172.91 390.13,173.17 C390.21,173.30 390.29,173.55 390.36,173.90 ZM 387.64 172.14 C387.35,172.14 387.05,172.16 386.72,172.19 C385.69,172.29 384.93,172.45 384.25,172.89 C384.88,172.46 385.55,172.27 386.39,172.17 C386.82,172.12 387.24,172.11 387.64,172.14 ZM 584.92 140.59 C584.93,140.60 584.94,140.60 584.94,140.61 C585.26,140.93 584.51,143.66 583.49,146.55 C584.49,143.70 585.21,141.00 584.92,140.59 Z" fill="rgb(212,185,92)"/>
<path d="M 446.05 69.72 C440.19,69.29 432.61,69.09 425.75,69.21 C417.09,69.37 410.00,69.22 410.00,68.89 C410.00,67.75 419.19,67.00 433.17,67.00 C444.06,67.00 446.90,66.76 447.56,65.67 C446.91,66.76 444.11,67.00 433.53,67.00 C425.18,67.00 420.00,67.38 420.00,68.00 C420.00,68.61 424.63,69.03 431.75,69.08 C435.97,69.10 441.41,69.36 446.05,69.72 ZM 495.95 209.60 C495.02,207.59 493.98,206.19 493.50,206.35 C492.39,206.74 492.28,217.01 493.34,221.24 C493.57,222.12 493.76,222.71 494.01,223.05 C493.82,222.85 493.66,222.57 493.52,222.19 C492.35,219.16 491.64,204.00 492.67,204.00 C493.20,204.00 494.66,206.47 495.91,209.50 C495.92,209.53 495.94,209.57 495.95,209.60 ZM 574.63 143.51 C574.10,143.18 573.54,143.00 572.98,143.00 C571.89,143.00 571.00,142.62 571.00,142.14 C571.00,141.57 575.81,140.80 579.78,140.48 C579.97,140.46 580.16,140.45 580.35,140.44 C580.16,140.47 579.96,140.49 579.75,140.52 C573.69,141.34 572.84,141.57 574.63,143.51 ZM 502.96 220.26 C500.14,216.96 497.40,213.07 496.35,210.51 C496.31,210.42 496.28,210.33 496.24,210.24 C497.64,213.24 500.27,217.07 502.96,220.26 ZM 451.50 70.26 C450.85,70.18 450.15,70.09 449.40,70.02 C450.55,70.13 451.60,70.25 452.50,70.37 C455.46,70.77 457.74,71.05 459.39,71.17 C457.57,71.04 454.95,70.73 451.50,70.26 ZM 581.90 150.58 C581.39,151.75 580.89,152.73 580.50,153.30 C580.03,153.97 579.72,154.33 579.48,154.27 C579.71,154.31 580.01,153.96 580.43,153.33 C580.87,152.68 581.38,151.70 581.90,150.58 ZM 584.92 140.59 C584.98,140.67 585.00,140.84 584.98,141.08 C584.95,140.83 584.86,140.64 584.69,140.50 C584.79,140.52 584.87,140.55 584.92,140.59 ZM 578.55 151.30 C578.44,150.71 578.32,150.16 578.19,149.64 C578.32,150.07 578.42,150.51 578.49,150.92 C578.54,151.23 578.59,151.52 578.64,151.79 C578.61,151.63 578.58,151.47 578.55,151.30 ZM 500.85 222.89 C501.67,223.36 502.24,224.18 502.51,225.36 C502.24,224.19 501.67,223.36 500.85,222.89 Z" fill="rgb(242,236,203)"/>
<path d="M 0.00 512.00 L 0.00 0.00 L 512.00 0.00 L 1024.00 0.00 L 1024.00 512.00 L 1024.00 1024.00 L 512.00 1024.00 L 0.00 1024.00 L 0.00 512.00 ZM 588.77 954.74 L 589.04 931.97 L 586.77 931.07 C585.52,930.57 566.05,928.30 543.50,926.03 C517.79,923.45 502.04,921.45 501.27,920.69 C499.90,919.33 498.32,866.79 497.68,801.00 C497.47,779.19 496.94,763.62 496.41,763.78 C488.22,766.29 461.14,769.00 444.16,769.00 C428.69,769.00 394.37,766.31 384.50,764.32 C380.10,763.43 375.38,762.51 374.00,762.28 L 371.50 761.84 L 371.36 772.67 C371.29,778.63 370.90,814.23 370.49,851.78 C369.78,917.34 369.68,920.10 367.86,921.07 C366.82,921.63 349.44,923.88 329.23,926.08 C309.03,928.27 291.49,930.28 290.25,930.55 L 288.00 931.04 L 288.00 953.85 C288.00,966.40 288.31,976.98 288.69,977.36 C289.07,977.74 356.69,977.93 438.94,977.78 L 588.50 977.50 L 588.77 954.74 ZM 226.91 761.91 C228.08,760.33 230.53,755.74 232.37,751.72 C237.71,740.00 243.25,734.89 253.68,732.09 C261.33,730.03 271.37,732.29 335.03,750.39 C354.71,755.99 369.47,759.69 370.75,759.36 C371.94,759.04 375.08,759.52 377.71,760.42 C382.52,762.06 400.99,764.09 427.98,765.96 C443.06,767.00 460.82,766.22 484.41,763.48 C492.20,762.58 496.94,762.43 498.11,763.06 C500.96,764.59 522.40,757.03 539.50,748.47 C555.82,740.29 575.60,727.18 576.95,723.64 C577.41,722.42 582.80,716.76 588.93,711.07 C610.77,690.77 616.30,682.74 636.55,642.00 C639.23,636.62 644.33,616.03 646.09,603.50 C647.67,592.29 647.69,569.11 646.13,558.50 C637.99,503.04 610.76,461.61 557.36,423.43 C542.52,412.82 506.78,390.74 502.25,389.37 C497.40,387.92 495.66,386.89 445.00,355.75 C425.48,343.74 406.83,331.58 403.57,328.71 C400.31,325.85 395.14,322.15 392.08,320.50 C385.78,317.11 384.71,314.91 388.50,313.18 C391.95,311.61 400.52,303.51 403.04,299.43 C405.85,294.89 408.15,282.11 407.36,275.42 C407.01,272.44 406.43,270.00 406.07,270.00 C405.71,270.00 404.89,271.91 404.24,274.25 C402.79,279.48 395.17,291.61 394.09,290.39 C393.66,289.90 392.33,286.80 391.12,283.50 C388.81,277.16 383.81,270.06 372.78,257.44 C369.08,253.22 364.69,247.34 363.02,244.38 C361.35,241.42 359.54,239.00 358.99,239.00 C357.50,239.00 357.80,247.44 359.54,254.14 C360.38,257.41 363.95,266.70 367.47,274.79 C376.37,295.27 380.23,310.00 376.70,310.00 C375.06,310.00 363.40,302.69 339.87,286.91 C310.81,267.42 296.10,251.22 287.30,229.00 C278.88,207.72 278.80,185.91 287.06,160.50 C294.23,138.43 303.13,123.49 319.22,106.48 C333.97,90.90 351.50,78.27 373.50,67.38 C395.89,56.29 409.38,53.00 432.44,53.00 C448.37,53.00 453.43,54.03 465.25,59.68 C470.61,62.24 475.26,64.08 475.58,63.75 C475.90,63.43 473.99,60.94 471.33,58.21 C465.89,52.64 457.73,49.00 450.66,49.00 C448.32,49.00 445.96,48.56 445.41,48.01 C443.86,46.46 413.77,45.72 401.00,46.92 C347.70,51.95 324.91,59.19 290.00,82.18 C246.81,110.63 220.03,148.25 209.93,194.71 C207.26,206.95 206.09,244.55 207.93,258.41 C213.76,302.21 236.35,339.90 274.60,369.62 C288.93,380.76 362.17,428.08 368.65,430.39 C373.99,432.29 389.31,441.77 488.74,504.68 C494.37,508.24 499.70,512.36 500.57,513.83 C501.45,515.30 504.25,518.08 506.80,520.00 C536.56,542.49 552.03,563.99 560.16,594.17 C562.05,601.17 562.41,605.06 562.41,618.50 C562.40,637.08 561.03,643.71 553.55,661.23 C551.05,667.08 549.00,672.64 549.00,673.58 C549.00,677.16 537.74,689.15 529.23,694.65 C514.13,704.39 509.57,706.15 481.00,713.34 C462.99,717.87 458.79,718.58 414.50,724.50 C373.03,730.04 374.36,729.94 370.34,727.78 C368.41,726.75 362.04,724.20 356.17,722.10 C328.42,712.18 302.32,694.54 281.91,671.91 C264.41,652.50 252.57,632.43 244.16,607.90 C240.31,596.68 232.90,566.70 231.45,556.50 C230.58,550.38 228.15,545.42 224.17,541.64 C220.71,538.36 219.72,538.68 217.03,543.94 C213.31,551.24 212.88,564.66 213.20,663.50 L 213.50 757.50 L 216.22 763.30 L 218.94 769.11 L 221.86 766.94 C223.47,765.76 225.74,763.49 226.91,761.91 ZM 409.50 722.51 C418.85,721.14 432.58,719.31 440.00,718.43 C467.18,715.24 504.85,705.71 519.28,698.39 C527.27,694.33 536.32,687.41 541.09,681.71 L 546.28 675.50 L 534.39 674.89 C527.85,674.55 517.49,674.21 511.37,674.14 C503.41,674.04 499.93,673.62 499.13,672.65 C498.33,671.70 497.94,648.56 497.76,591.97 L 497.50 512.62 L 435.06 473.31 C400.71,451.69 372.03,434.00 371.31,434.00 C370.24,434.00 370.00,459.89 370.00,576.88 C370.00,655.46 370.28,721.13 370.61,722.82 C371.12,725.37 371.76,725.94 374.36,726.20 C378.58,726.60 389.06,725.50 409.50,722.51 ZM 607.77 720.98 C637.59,717.58 675.93,708.37 695.00,700.04 C706.14,695.17 726.49,684.99 734.87,680.08 C743.36,675.12 763.51,658.55 770.51,650.79 C796.19,622.32 809.90,591.84 816.10,549.50 C817.79,537.98 817.84,504.22 816.18,492.50 C812.68,467.71 801.80,438.60 788.60,418.71 C782.39,409.37 768.61,394.02 759.50,386.30 C743.56,372.81 729.97,364.57 707.05,354.49 C681.59,343.29 668.71,339.74 635.00,334.60 C597.65,328.91 594.65,328.78 497.25,328.59 C447.61,328.49 407.00,328.73 407.00,329.12 C407.00,329.89 496.55,385.29 498.62,385.81 C499.38,386.00 499.99,384.84 500.18,382.81 L 500.50 379.50 L 529.50 379.20 C568.72,378.78 586.18,380.81 610.50,388.59 C640.81,398.29 663.86,417.57 677.95,445.00 C683.96,456.69 687.25,466.49 690.70,483.00 C693.08,494.33 693.33,497.70 693.41,519.00 C693.55,555.15 690.59,572.94 680.45,597.01 C678.01,602.79 674.38,610.28 672.39,613.66 C667.23,622.36 652.39,639.82 646.61,643.98 C635.21,652.17 631.50,655.66 630.01,659.58 C627.67,665.73 619.39,679.92 613.67,687.55 C608.18,694.88 591.50,712.24 584.02,718.40 C580.38,721.39 579.81,722.27 581.02,723.04 C581.83,723.57 584.30,723.76 586.50,723.47 C588.70,723.18 598.27,722.06 607.77,720.98 ZM 423.09 306.94 C429.75,302.67 437.71,293.88 440.48,287.75 C443.44,281.20 444.66,274.53 446.39,255.46 C447.58,242.35 448.12,239.71 450.62,234.96 C452.20,231.96 453.64,229.16 453.83,228.75 C454.01,228.34 453.19,228.00 452.00,228.00 C450.70,228.00 447.25,230.47 443.44,234.14 C437.48,239.86 436.73,241.09 432.37,252.39 C429.81,259.05 426.18,268.27 424.31,272.87 C422.44,277.48 421.16,281.50 421.47,281.80 C422.39,282.72 427.26,278.63 430.86,273.91 C434.45,269.21 437.00,267.80 437.00,270.50 C437.00,271.41 435.88,275.50 434.50,279.59 C430.59,291.25 424.27,300.29 415.32,307.05 C412.39,309.26 410.00,311.48 410.00,311.99 C410.00,313.36 417.74,310.37 423.09,306.94 ZM 464.42 279.69 C464.81,277.12 464.88,274.62 464.59,274.14 C464.29,273.67 463.60,269.31 463.05,264.46 C461.24,248.56 458.94,251.80 459.10,270.00 C459.17,277.07 458.68,282.13 457.61,285.50 C455.34,292.66 455.59,292.99 459.88,288.44 C462.75,285.41 463.89,283.20 464.42,279.69 ZM 481.50 252.00 C481.50,244.50 481.02,239.37 480.13,237.25 C478.04,232.29 476.71,233.23 477.51,239.10 L 478.22 244.21 L 475.14 243.53 L 472.06 242.85 L 474.09 248.68 C475.20,251.88 476.58,256.98 477.15,260.00 C478.45,266.85 478.99,267.75 480.39,265.38 C481.03,264.29 481.50,258.64 481.50,252.00 ZM 396.52 257.25 C395.45,245.10 397.38,231.91 402.51,216.32 C404.98,208.81 406.82,202.49 406.60,202.27 C405.14,200.81 395.59,218.66 391.37,230.75 C390.36,233.64 388.96,236.00 388.25,236.00 C387.55,236.00 385.99,233.98 384.79,231.50 C383.59,229.02 382.19,227.00 381.69,227.00 C380.25,227.00 381.89,237.33 384.58,245.24 C387.04,252.48 394.42,265.00 396.22,265.00 C396.84,265.00 396.96,262.14 396.52,257.25 ZM 507.80 252.58 C509.28,251.79 512.96,248.64 515.97,245.58 C521.00,240.44 524.91,238.26 523.72,241.25 C523.44,241.94 522.44,244.43 521.48,246.79 C520.53,249.15 520.03,251.36 520.36,251.70 C521.64,252.97 529.13,248.53 534.43,243.35 C542.57,235.41 542.80,234.64 537.71,232.48 C525.01,227.09 522.00,225.50 516.83,221.45 C513.72,219.00 511.00,217.00 510.79,217.00 C510.57,217.00 510.60,218.68 510.84,220.73 L 511.27 224.47 L 508.00 221.94 C503.78,218.69 497.81,208.79 495.58,201.34 C492.71,191.75 493.01,192.26 491.68,194.50 C489.86,197.59 490.12,224.67 492.02,228.47 C493.86,232.17 495.23,232.03 496.26,228.06 C497.67,222.62 499.67,224.42 501.47,232.75 C502.39,237.01 503.51,241.89 503.95,243.59 C504.48,245.64 504.29,247.79 503.38,249.96 C502.62,251.76 502.00,253.40 502.00,253.61 C502.00,254.49 505.28,253.90 507.80,252.58 ZM 345.48 234.62 C344.65,222.35 346.48,206.76 351.19,186.00 C356.06,164.53 366.17,143.63 378.03,130.55 C381.39,126.84 383.97,123.64 383.76,123.43 C382.58,122.25 375.38,125.73 368.96,130.60 C364.89,133.68 361.40,135.70 361.20,135.10 C360.74,133.71 366.96,122.39 372.53,114.47 C378.32,106.26 389.49,95.94 397.32,91.56 C400.89,89.57 404.41,87.20 405.15,86.31 C406.38,84.82 405.91,84.74 399.77,85.36 C379.62,87.42 346.82,102.48 328.02,118.32 C320.72,124.46 314.24,131.57 315.12,132.45 C315.38,132.71 318.02,131.79 321.00,130.41 C324.29,128.88 327.74,128.02 329.81,128.20 L 333.21 128.50 L 329.24 133.50 C327.05,136.25 323.90,140.98 322.23,144.00 C318.75,150.32 313.57,164.91 314.49,165.82 C314.83,166.16 316.27,164.88 317.68,162.97 C319.10,161.06 324.98,154.90 330.74,149.28 C344.92,135.46 348.56,134.28 343.26,145.23 C336.83,158.53 335.00,169.05 335.00,192.84 C335.00,207.39 335.42,213.26 337.05,221.24 C339.19,231.74 343.80,245.00 345.31,245.00 C345.81,245.00 345.88,240.47 345.48,234.62 ZM 546.56 220.75 C549.84,216.87 552.00,212.01 552.00,208.53 C552.00,205.33 551.48,205.37 546.05,209.05 C543.61,210.70 540.63,212.31 539.42,212.61 C535.40,213.62 527.37,209.15 521.03,202.38 C517.75,198.87 514.83,196.00 514.53,196.00 C513.18,196.00 514.27,200.22 517.06,205.81 C520.72,213.13 527.21,219.17 534.36,221.92 C541.55,224.68 543.39,224.51 546.56,220.75 ZM 466.81 202.64 C469.81,199.81 473.35,195.78 474.69,193.68 C477.43,189.36 479.24,189.32 480.06,193.58 C480.57,196.26 480.75,196.04 482.33,190.75 C483.28,187.59 484.77,181.86 485.64,178.00 C486.87,172.54 487.61,171.00 489.00,171.00 C491.25,171.00 491.78,169.58 492.62,161.41 L 493.29 154.85 L 489.40 155.55 C479.89,157.26 467.60,166.05 462.10,175.07 C458.98,180.19 459.53,180.62 464.25,176.78 C468.32,173.46 472.23,171.00 473.43,171.00 C475.14,171.00 474.74,171.79 458.35,201.06 C455.41,206.33 453.00,210.95 453.00,211.34 C453.00,212.93 461.72,207.43 466.81,202.64 ZM 375.42 200.25 C380.64,183.45 384.81,174.07 387.10,174.02 C387.42,174.01 387.96,180.30 388.29,187.99 C388.84,200.76 389.90,206.66 391.24,204.38 C391.52,203.90 392.95,199.31 394.42,194.18 C399.28,177.13 406.06,161.98 413.50,151.50 C418.50,144.45 428.21,135.00 430.44,135.00 C432.42,135.00 432.46,134.76 429.46,141.30 C428.07,144.35 426.68,149.24 426.39,152.17 L 425.85 157.50 L 430.73 149.00 C433.42,144.32 438.17,136.48 441.30,131.57 C444.42,126.66 446.77,122.44 446.53,122.19 C445.57,121.24 436.19,124.32 429.74,127.71 C420.40,132.62 407.87,145.84 402.16,156.81 C397.72,165.35 396.52,166.81 395.71,164.70 C394.91,162.61 398.57,147.17 401.92,138.52 C405.52,129.20 405.36,130.00 403.59,130.00 C401.25,130.00 389.09,143.97 384.91,151.46 C382.75,155.33 379.85,162.07 378.45,166.44 C374.16,179.87 370.44,206.00 372.82,206.00 C373.27,206.00 374.44,203.41 375.42,200.25 ZM 428.10 197.75 C433.88,186.17 442.31,174.57 451.44,165.62 C460.11,157.12 460.35,156.77 457.00,157.49 C455.08,157.90 451.77,159.12 449.65,160.19 C442.65,163.74 442.43,161.95 448.62,151.99 C451.72,147.00 453.92,142.60 453.52,142.21 C452.32,141.05 440.62,154.37 437.20,160.78 C432.91,168.82 427.03,184.26 425.89,190.45 C424.25,199.35 423.72,204.00 424.36,204.00 C424.69,204.00 426.38,201.19 428.10,197.75 ZM 532.50 194.75 C535.96,179.68 535.44,165.89 531.84,177.25 C530.00,183.08 528.55,182.58 528.24,176.00 C527.71,164.70 525.44,162.69 522.33,170.75 C519.92,177.01 519.97,188.18 522.44,193.00 C524.32,196.67 528.86,202.00 530.11,202.00 C530.51,202.00 531.59,198.74 532.50,194.75 ZM 513.00 164.26 C517.52,155.58 527.42,145.67 536.73,140.50 L 543.94 136.50 L 543.83 132.00 C543.62,123.62 548.01,118.23 549.51,125.02 C550.29,128.58 554.57,134.00 556.59,134.00 C557.36,134.00 558.00,133.04 558.00,131.87 C558.00,129.90 558.31,129.81 562.25,130.62 C564.59,131.10 571.92,131.50 578.55,131.50 C588.47,131.50 591.08,131.18 593.34,129.70 C599.16,125.88 599.35,119.25 593.74,116.39 C591.96,115.48 588.16,112.55 585.31,109.87 C580.98,105.81 579.49,105.00 576.31,104.99 C571.01,104.99 564.79,103.12 565.27,101.69 C565.52,100.93 569.16,100.32 575.34,100.00 C580.66,99.72 585.05,99.07 585.08,98.54 C585.22,96.53 572.37,93.62 553.01,91.28 C546.86,90.54 546.49,90.35 546.01,87.60 C545.57,85.11 544.63,84.38 539.41,82.42 C530.08,78.94 519.06,77.00 508.54,77.00 C498.65,77.00 496.82,77.85 502.05,80.02 C506.35,81.80 505.41,84.00 499.49,86.01 C485.68,90.70 470.45,102.57 465.06,112.84 C463.16,116.47 464.34,116.38 469.38,112.54 C473.50,109.40 477.00,108.02 477.00,109.53 C477.00,109.83 475.88,112.29 474.50,115.00 C471.48,120.95 471.14,127.93 473.75,130.23 C477.09,133.17 486.18,137.12 490.91,137.68 C495.55,138.23 495.79,138.12 501.95,132.62 C505.42,129.53 508.65,127.00 509.13,127.00 C510.34,127.00 510.22,130.74 508.98,131.51 C507.83,132.23 502.69,142.00 503.47,142.00 C503.75,142.00 507.02,139.91 510.74,137.35 C519.01,131.66 527.55,127.61 529.62,128.41 C530.78,128.85 529.86,130.20 525.83,133.89 C519.46,139.74 514.68,147.37 511.57,156.67 C509.06,164.20 507.75,171.00 508.81,170.99 C509.19,170.99 511.08,167.96 513.00,164.26 ZM 581.19 157.42 C583.37,154.24 589.00,139.85 589.00,137.46 C589.00,135.78 563.92,140.25 557.20,143.13 C551.61,145.52 552.68,147.21 559.00,145.97 C572.45,143.33 576.00,145.34 576.00,155.58 C576.00,163.19 576.99,163.54 581.19,157.42 ZM 444.99 101.61 C439.05,93.74 439.74,92.34 447.76,95.98 C453.67,98.66 458.88,100.00 459.51,98.99 C459.79,98.52 459.18,97.88 458.15,97.55 C457.11,97.22 455.42,95.99 454.38,94.83 L 452.50 92.70 L 458.00 93.36 C461.02,93.71 464.52,94.28 465.77,94.62 C467.53,95.10 468.83,94.40 471.60,91.46 C476.03,86.76 475.54,86.43 463.00,85.72 C457.77,85.43 449.29,84.19 444.16,82.99 C438.71,81.71 434.44,81.16 433.92,81.68 C432.55,83.05 434.64,93.67 437.03,97.55 C439.53,101.59 446.93,108.16 448.14,107.42 C448.60,107.13 447.19,104.51 444.99,101.61 ZM 398.07 73.37 C412.48,71.11 441.86,71.20 457.75,73.55 C464.34,74.52 470.58,74.99 471.62,74.59 C473.19,73.99 472.60,73.30 468.00,70.34 C461.59,66.22 449.13,60.00 447.28,60.00 C446.58,60.00 446.00,60.90 446.00,62.00 C446.00,63.86 445.33,64.00 436.25,64.01 C430.89,64.01 422.60,64.46 417.84,65.01 C407.94,66.14 387.86,71.88 387.24,73.75 C386.74,75.28 385.63,75.32 398.07,73.37 ZM 511.44 62.90 C508.81,58.64 489.96,50.00 483.31,50.00 C479.85,50.00 480.57,51.09 487.88,56.92 C494.92,62.53 496.00,62.94 496.00,60.00 C496.00,57.29 497.61,57.49 503.50,60.96 C508.56,63.94 512.71,64.95 511.44,62.90 ZM 417.50 975.02 L 290.50 974.50 L 290.23 953.75 C290.08,942.34 290.31,933.00 290.73,933.00 C296.74,933.04 366.35,924.55 368.72,923.49 C370.64,922.64 372.14,921.13 372.42,919.78 C372.67,918.53 373.09,883.39 373.34,841.69 C373.58,800.00 373.99,765.67 374.25,765.42 C374.50,765.16 377.59,765.64 381.11,766.47 C384.62,767.30 399.20,768.93 413.50,770.09 C441.49,772.36 451.33,772.25 478.79,769.36 C487.20,768.48 494.40,768.07 494.79,768.46 C495.18,768.85 495.60,789.49 495.71,814.33 C495.83,839.18 496.28,873.32 496.71,890.22 C497.40,916.90 497.72,921.15 499.17,922.60 C500.51,923.94 509.02,925.13 542.67,928.65 C565.68,931.05 585.07,933.23 585.77,933.49 C586.75,933.85 586.98,938.64 586.77,954.73 L 586.50 975.50 L 565.50 975.52 C553.95,975.52 487.35,975.30 417.50,975.02 ZM 217.97 760.66 C215.92,756.03 215.91,755.19 216.20,653.25 C216.49,555.34 216.59,550.32 218.36,546.75 C219.39,544.69 220.59,543.00 221.03,543.00 C222.14,543.00 226.75,548.62 227.38,550.74 C227.67,551.71 229.27,559.30 230.95,567.60 C240.91,616.78 253.74,644.63 279.76,673.50 C300.75,696.80 327.44,714.89 354.93,724.43 C360.66,726.43 366.92,729.03 368.84,730.21 C372.20,732.28 372.73,732.32 383.07,731.17 C394.39,729.91 427.91,725.41 451.56,721.97 C468.74,719.48 506.21,710.02 514.74,706.03 C518.18,704.43 525.15,700.41 530.25,697.11 C540.85,690.24 550.78,679.33 552.06,673.13 C552.47,671.13 554.85,664.55 557.35,658.50 C563.92,642.58 565.30,634.41 564.76,614.70 C564.38,600.74 563.94,597.26 561.60,589.54 C556.38,572.29 551.39,562.76 539.37,547.00 C532.72,538.29 518.08,524.59 507.75,517.43 C505.96,516.19 503.60,513.77 502.50,512.05 C500.32,508.65 499.47,508.08 434.00,466.81 C381.22,433.54 375.95,430.35 369.95,427.98 C359.74,423.96 284.54,374.61 270.12,362.47 C240.43,337.48 223.07,310.62 213.78,275.27 C210.79,263.93 210.66,262.58 210.24,238.15 C209.76,210.92 210.40,203.42 214.60,186.70 C219.60,166.80 228.89,147.53 241.93,130.03 C263.45,101.14 302.92,72.69 337.82,60.89 C348.83,57.17 368.24,53.07 378.50,52.30 C382.90,51.97 388.24,51.09 390.38,50.35 C395.03,48.73 425.47,48.40 423.00,50.00 C422.17,50.53 419.70,50.98 417.50,51.00 C399.73,51.12 366.27,65.38 341.61,83.34 C329.25,92.34 311.08,110.40 303.16,121.56 C292.96,135.93 284.37,155.60 280.39,173.67 C277.85,185.22 278.09,207.90 280.86,218.30 C285.67,236.32 294.11,250.70 308.62,265.55 C318.13,275.29 321.35,277.74 347.15,294.84 C376.58,314.34 377.33,314.72 380.08,311.40 C382.39,308.62 378.74,294.52 370.97,276.26 C364.14,260.20 360.36,249.31 361.30,248.37 C361.56,248.10 362.84,249.37 364.13,251.18 C365.42,252.99 369.81,258.30 373.88,262.97 C383.17,273.62 387.40,280.04 389.56,286.78 C391.78,293.71 394.13,295.04 397.59,291.31 C399.01,289.78 400.90,287.29 401.80,285.77 C405.23,279.95 405.61,283.21 402.70,293.50 C401.55,297.54 393.49,306.53 386.02,312.09 C382.88,314.43 382.65,314.93 383.66,317.14 C384.31,318.58 387.43,321.01 391.14,322.99 C394.64,324.85 399.75,328.49 402.50,331.09 C406.89,335.22 427.38,348.22 483.80,382.66 C492.22,387.80 500.05,392.00 501.21,392.00 C505.00,392.00 550.09,420.83 568.40,434.97 C600.38,459.66 621.09,486.62 633.38,519.53 C646.67,555.14 648.31,590.47 638.44,628.00 C637.06,633.22 635.12,639.08 634.12,641.00 C633.12,642.92 628.97,651.03 624.89,659.00 C614.33,679.67 608.73,687.28 590.27,706.00 C581.32,715.08 572.85,723.71 571.45,725.18 C559.90,737.33 508.72,761.88 498.28,760.28 C496.51,760.01 487.29,760.59 477.78,761.59 C468.13,762.60 452.77,763.40 443.00,763.40 C423.68,763.41 389.66,760.69 380.86,758.44 C377.75,757.65 373.53,757.00 371.48,757.00 C369.43,757.00 352.62,752.68 334.12,747.41 C279.08,731.70 270.91,729.74 260.00,729.61 C251.48,729.51 249.97,729.78 245.35,732.22 C238.80,735.67 235.05,740.24 229.51,751.54 C227.08,756.51 223.95,761.64 222.56,762.95 L 220.03 765.32 L 217.97 760.66 ZM 373.67 723.33 C372.89,722.56 372.75,438.00 373.52,438.00 C373.81,438.00 386.07,445.59 400.77,454.87 C415.47,464.15 438.30,478.51 451.50,486.80 C464.70,495.08 480.11,504.80 485.75,508.40 L 496.00 514.94 L 496.00 594.35 C496.00,666.93 496.14,673.87 497.65,675.13 C498.89,676.16 504.58,676.63 520.40,677.00 L 541.50 677.50 L 536.00 683.06 C525.76,693.42 510.68,700.45 483.58,707.49 C469.21,711.23 452.66,714.31 438.00,715.97 C432.77,716.57 417.61,718.61 404.30,720.53 C379.59,724.07 374.84,724.51 373.67,723.33 ZM 587.00 720.19 C587.00,719.72 590.28,716.39 594.30,712.78 C608.36,700.14 623.25,680.39 630.49,664.74 C634.14,656.86 636.11,654.72 646.16,647.69 C654.32,641.98 668.59,625.36 675.27,613.78 C680.59,604.55 687.93,586.39 690.93,575.00 C695.50,557.62 697.87,525.04 696.10,503.96 C692.93,466.39 681.91,438.60 661.77,417.39 C647.20,402.06 629.17,391.26 607.96,385.18 C581.75,377.67 567.57,376.02 528.74,376.01 L 499.97 376.00 L 498.24 378.83 L 496.50 381.65 L 457.00 357.27 C435.27,343.86 416.97,332.58 416.32,332.20 C414.47,331.10 560.06,330.96 583.50,332.03 C611.68,333.31 652.45,338.89 670.50,343.92 C687.03,348.53 714.24,359.68 728.00,367.47 C775.86,394.57 805.33,437.76 813.48,492.74 C816.62,513.90 815.14,545.34 809.86,569.88 C799.88,616.21 768.89,657.97 727.30,681.16 C690.92,701.44 650.60,713.94 606.96,718.46 C598.46,719.34 590.49,720.28 589.25,720.55 C588.01,720.82 587.00,720.66 587.00,720.19 ZM 428.04 299.59 C428.02,299.09 429.36,296.56 431.02,293.97 C434.05,289.25 440.00,273.22 440.00,269.79 C440.00,267.72 435.86,265.73 433.47,266.65 C432.62,266.98 431.23,268.58 430.39,270.21 C425.80,279.09 429.92,264.72 436.48,248.98 C439.98,240.59 448.88,230.93 445.91,238.74 C445.33,240.25 444.25,248.69 443.50,257.49 C441.94,275.95 440.88,281.34 437.57,287.82 C435.15,292.58 428.12,301.25 428.04,299.59 ZM 477.56 250.38 C476.83,247.48 477.31,246.46 478.93,247.46 C480.22,248.25 480.37,253.00 479.11,253.00 C478.62,253.00 477.92,251.82 477.56,250.38 ZM 389.59 250.75 C388.18,247.86 386.74,244.04 386.39,242.25 C385.79,239.22 385.94,239.00 388.46,239.00 C390.56,239.00 391.43,238.32 392.31,236.00 C393.62,232.52 395.53,231.91 394.63,235.25 C394.30,236.49 394.02,241.66 394.01,246.75 C394.01,251.84 393.58,256.00 393.07,256.00 C392.56,256.00 391.00,253.64 389.59,250.75 ZM 507.00 247.56 C507.00,245.45 506.23,241.63 502.51,225.36 C501.89,222.66 499.68,221.79 496.50,223.00 C494.30,223.83 493.95,223.64 493.34,221.24 C492.28,217.01 492.39,206.74 493.50,206.35 C494.05,206.16 495.33,208.03 496.35,210.51 C498.27,215.17 505.76,224.27 509.20,226.11 C510.71,226.92 511.60,226.77 513.04,225.46 C514.83,223.85 515.16,223.92 519.55,226.83 C522.10,228.52 527.28,231.11 531.06,232.59 L 537.93 235.29 L 535.89 238.16 C533.82,241.06 524.99,248.32 524.33,247.66 C524.13,247.47 524.67,245.64 525.52,243.61 C527.42,239.06 526.85,238.00 522.49,238.00 C519.69,238.00 518.44,238.79 515.30,242.55 C513.21,245.05 510.49,247.76 509.25,248.57 C507.12,249.96 507.00,249.91 507.00,247.56 ZM 340.61 226.25 C338.57,219.40 337.01,204.52 337.01,192.00 C337.02,173.92 339.91,158.36 345.38,146.91 C349.46,138.36 349.59,137.73 347.51,136.01 C344.90,133.84 341.40,135.77 330.96,145.13 C323.58,151.75 320.98,153.61 321.49,151.88 C322.35,148.97 328.89,137.96 333.03,132.44 C337.27,126.80 336.36,124.71 329.86,125.16 C327.19,125.35 325.00,125.17 325.00,124.76 C325.00,124.36 328.37,121.35 332.48,118.08 C344.74,108.34 366.43,96.98 382.00,92.15 C389.35,89.87 395.00,88.62 395.00,89.29 C395.00,89.53 393.09,91.00 390.75,92.55 C384.89,96.42 376.46,104.52 372.04,110.50 C366.43,118.08 358.00,132.81 358.00,135.01 C358.00,138.33 362.45,138.63 367.01,135.62 C369.18,134.18 371.18,133.00 371.45,133.00 C371.72,133.00 370.79,134.69 369.39,136.75 C360.57,149.71 352.76,167.60 348.92,183.67 C345.82,196.63 343.02,215.39 343.01,223.25 C343.00,227.94 341.63,229.66 340.61,226.25 ZM 534.36 219.08 C530.56,217.35 521.53,210.14 522.26,209.41 C522.43,209.23 525.21,210.42 528.43,212.05 C534.82,215.27 540.05,215.76 544.00,213.50 C547.89,211.27 549.31,211.54 547.91,214.25 C545.94,218.07 542.75,221.00 540.58,220.98 C539.43,220.97 536.64,220.11 534.36,219.08 ZM 460.00 204.65 C460.00,204.36 463.01,198.58 466.70,191.81 C476.53,173.73 477.12,172.46 476.44,170.69 C476.09,169.80 474.90,168.79 473.78,168.43 C471.84,167.82 471.89,167.66 474.62,165.43 C478.31,162.41 485.40,159.00 487.99,159.00 C491.42,159.00 490.40,166.89 486.75,168.54 C485.14,169.27 484.31,171.11 483.28,176.28 C481.28,186.32 480.46,188.00 477.56,188.00 C475.64,188.00 474.28,189.22 471.66,193.31 C468.81,197.77 460.00,206.33 460.00,204.65 ZM 390.98 183.31 C390.98,178.46 390.59,173.90 390.13,173.17 C389.65,172.41 388.03,171.98 386.39,172.17 C383.95,172.45 382.99,173.51 380.22,179.00 L 376.94 185.50 L 377.60 180.50 C378.55,173.34 381.72,163.52 385.53,155.95 C388.99,149.08 396.39,139.00 397.98,139.00 C398.49,139.00 398.24,140.91 397.41,143.24 C395.25,149.38 392.83,161.73 393.19,164.84 C393.41,166.76 394.15,167.59 395.87,167.83 C397.17,168.02 398.72,167.68 399.32,167.08 C401.89,164.51 401.47,166.66 397.37,177.01 C394.96,183.06 393.00,188.66 393.00,189.45 C393.00,190.24 392.55,191.16 392.00,191.50 C391.36,191.89 390.99,188.92 390.98,183.31 ZM 434.00 134.61 C434.00,132.92 431.56,131.85 429.50,132.64 C428.67,132.95 428.00,132.78 428.00,132.24 C428.00,131.16 439.89,125.55 440.62,126.29 C441.24,126.91 435.74,136.00 434.76,136.00 C434.34,136.00 434.00,135.37 434.00,134.61 ZM 430.00 186.16 C430.00,183.08 438.74,162.00 440.01,162.00 C440.42,162.00 441.32,162.68 442.00,163.50 C442.68,164.32 444.13,165.00 445.20,165.00 C446.84,165.00 446.39,165.96 442.51,170.75 C439.95,173.91 436.25,178.86 434.28,181.75 C430.72,187.00 430.00,187.74 430.00,186.16 ZM 527.18 195.72 C524.76,192.80 523.00,186.83 523.00,181.53 C523.00,178.49 523.45,176.00 524.00,176.00 C524.55,176.00 525.00,177.28 525.00,178.85 C525.00,181.87 527.64,185.00 530.19,185.00 C531.50,185.00 531.59,185.79 530.79,190.25 C529.71,196.27 528.79,197.66 527.18,195.72 ZM 517.00 151.05 C517.00,148.93 522.29,141.43 527.70,135.88 C531.79,131.69 533.09,129.66 532.84,127.88 C532.31,124.19 528.48,124.45 519.95,128.76 L 512.40 132.57 L 512.40 129.28 C512.40,122.12 509.19,122.52 499.69,130.89 C493.37,136.45 492.72,136.55 484.50,133.25 C478.40,130.79 474.00,127.21 474.01,124.70 C474.02,123.49 475.14,120.09 476.51,117.15 C479.58,110.56 479.74,107.01 477.00,106.29 C475.90,106.00 475.00,105.39 475.00,104.94 C475.00,104.48 477.56,102.02 480.69,99.47 C486.52,94.73 494.67,90.19 501.13,88.10 C505.46,86.70 508.47,83.67 507.65,81.54 C507.19,80.33 507.83,80.00 510.57,80.00 C513.82,80.00 513.99,80.15 512.94,82.11 C512.32,83.27 512.03,85.35 512.29,86.73 C512.72,88.98 512.12,89.52 506.38,92.13 C501.08,94.53 500.00,95.43 500.00,97.45 C500.00,100.65 503.49,103.00 508.25,103.00 C511.37,103.00 512.22,103.44 512.98,105.46 C513.75,107.46 514.84,108.04 518.83,108.57 C522.32,109.04 523.71,109.66 523.62,110.72 C523.55,111.55 524.21,112.68 525.08,113.25 C526.28,114.03 527.86,113.44 531.82,110.72 C534.66,108.77 539.20,106.43 541.91,105.53 C547.63,103.63 549.28,102.02 548.83,98.81 C548.56,96.95 547.79,96.44 544.86,96.20 C542.05,95.96 540.27,94.88 537.06,91.45 C534.77,89.00 532.24,87.00 531.44,87.00 C530.65,87.00 530.00,86.10 530.00,85.00 C530.00,82.41 533.08,82.40 538.75,84.97 C541.61,86.27 543.00,87.53 543.00,88.83 C543.00,89.89 543.66,91.30 544.46,91.96 C545.52,92.85 561.92,95.45 569.81,95.98 C569.98,95.99 569.84,96.45 569.50,97.00 C569.16,97.55 567.84,98.00 566.56,98.00 C563.63,98.00 561.65,100.33 562.45,102.84 C563.21,105.24 566.80,106.67 574.10,107.48 C578.94,108.02 580.23,108.65 583.60,112.14 C585.74,114.36 589.13,117.01 591.13,118.04 C595.80,120.46 596.46,122.36 593.71,125.53 C589.90,129.94 579.46,130.72 563.31,127.78 C558.50,126.91 556.79,126.93 555.63,127.89 C554.41,128.90 553.95,128.77 553.07,127.13 C552.48,126.03 552.00,124.19 552.00,123.04 C552.00,120.67 548.01,118.40 545.52,119.35 C543.31,120.20 541.00,126.11 541.00,130.92 C541.00,134.75 540.76,135.04 534.75,138.55 C531.31,140.55 525.91,144.43 522.75,147.16 C519.59,149.90 517.00,151.65 517.00,151.05 ZM 526.18 108.35 C526.49,105.77 526.34,105.69 521.00,105.60 C516.09,105.51 515.47,105.26 515.18,103.25 C514.92,101.39 514.23,101.00 511.18,100.99 C507.22,100.97 502.70,99.11 502.77,97.53 C502.79,96.99 506.79,94.87 511.66,92.82 C518.04,90.13 522.00,89.08 525.89,89.05 C531.03,89.00 531.46,89.20 535.32,93.50 C538.54,97.09 540.02,98.00 542.62,98.00 C548.74,98.00 547.70,100.71 540.72,102.96 C538.64,103.63 534.66,105.71 531.87,107.59 C529.08,109.46 526.59,111.00 526.33,111.00 C526.07,111.00 526.00,109.81 526.18,108.35 ZM 515.00 85.11 C515.00,81.69 522.90,79.74 526.40,82.30 C528.95,84.17 526.80,85.58 520.25,86.32 C515.65,86.83 515.00,86.68 515.00,85.11 ZM 578.49 150.92 C578.09,148.58 576.73,145.64 575.45,144.36 C572.71,141.62 572.91,141.44 579.75,140.52 C584.16,139.93 585.00,140.06 585.00,141.39 C585.00,143.30 582.13,150.81 580.43,153.33 C579.34,154.95 579.12,154.68 578.49,150.92 ZM 446.05 92.33 C444.15,91.51 441.36,91.08 439.84,91.38 C437.33,91.88 437.02,91.62 436.42,88.42 C436.06,86.49 435.96,84.71 436.21,84.46 C436.45,84.21 440.67,84.89 445.58,85.95 C450.48,87.02 458.02,88.20 462.32,88.59 C469.28,89.21 469.98,89.45 468.63,90.79 C467.34,92.09 466.30,92.12 461.19,91.04 C454.82,89.69 451.00,90.26 451.00,92.57 C451.00,94.29 450.50,94.27 446.05,92.33 ZM 452.50 70.37 C447.55,69.70 438.21,69.12 431.75,69.08 C424.63,69.03 420.00,68.61 420.00,68.00 C420.00,67.38 425.18,67.00 433.53,67.00 C444.64,67.00 447.17,66.73 447.64,65.50 C448.44,63.40 450.34,63.62 455.78,66.46 C465.56,71.56 465.12,72.08 452.50,70.37 Z" fill="rgb(254,254,254)"/>
</g>
</svg>